<?xml version="1.0" encoding="utf-8"?>
<svg x="0px" y="0px" viewBox="0 0 32 32" xmlns="http://www.w3.org/2000/svg">
  <defs/>
  <g transform="matrix(2.028242239525777, 0, 0, 1.9982124800500398, 0.1652225325776219, -2070.8267756554046)">
    <path style="text-indent: 0px; text-transform: none; direction: ltr; baseline-shift: baseline; color: rgb(0, 0, 0); fill: rgb(0, 0, 0); fill-opacity: 1; stroke: none; visibility: visible; display: inline; overflow: visible;" d="M 8 0 C 7.2898638 0 6.6394158 0.3294 6.15625 0.8125 C 5.6730842 1.2956 5.34375 1.94615 5.34375 2.65625 L 5.34375 4.25 L 2.6875 4.25 A 0.5326728 0.5326728 0 0 0 2.15625 4.75 L 1.09375 15.40625 A 0.5326728 0.5326728 0 0 0 1.59375 15.96875 L 14.40625 15.96875 A 0.5326728 0.5326728 0 0 0 14.90625 15.40625 L 13.84375 4.75 A 0.5326728 0.5326728 0 0 0 13.3125 4.25 L 10.65625 4.25 L 10.65625 2.65625 C 10.65625 1.94615 10.326916 1.2956 9.84375 0.8125 C 9.3605841 0.3294 8.7101362 0 8 0 z M 8 1.0625 C 8.3551029 1.0625 8.7779865 1.2468 9.09375 1.5625 C 9.4095135 1.8782 9.59375 2.30115 9.59375 2.65625 L 9.59375 4.25 L 6.40625 4.25 L 6.40625 2.65625 C 6.40625 2.30115 6.5904865 1.8782 6.90625 1.5625 C 7.2220135 1.2468 7.6448972 1.0625 8 1.0625 z M 3.15625 5.3125 L 5.34375 5.3125 L 5.34375 6.9375 A 0.5326728 0.5326728 0 1 0 6.40625 6.9375 L 6.40625 5.3125 L 9.59375 5.3125 L 9.59375 6.9375 A 0.5326728 0.5326728 0 1 0 10.65625 6.9375 L 10.65625 5.3125 L 12.84375 5.3125 L 13.8125 14.90625 L 2.1875 14.90625 L 3.15625 5.3125 z M 3.625 12.78125 A 0.53496349 0.53496349 0 1 0 3.75 13.84375 L 12.25 13.84375 A 0.5326728 0.5326728 0 1 0 12.25 12.78125 L 3.75 12.78125 A 0.5326728 0.5326728 0 0 0 3.625 12.78125 z " transform="translate(0,1036.3622)" marker="none"/>
  </g>
  <path d="M -3.641465425491333 3.7699973583221436 Z " style="stroke: black; fill: none;"/>
  <path d="M 21.64234161376953 1.7236462831497192 Z " style="stroke: black; fill: none;"/>
  <path d="M 19.00482177734375 7.953649044036865 Z " style="stroke: black; fill: none;"/>
  <path d="M 10.182774543762207 2.4057633876800537 Z " style="stroke: black; fill: none;"/>
  <path d="M -29.663747787475586 -43.67900466918945 L -29.663747787475586 -45.707950592041016 C -29.663747787475586 -46.53996276855469 -30.335195541381836 -47.226009368896484 -31.181806564331055 -47.226009368896484 L -31.619707107543945 -47.226009368896484 C -32.45172119140625 -47.226009368896484 -33.13776397705078 -46.55455780029297 -33.13776397705078 -45.707950592041016 L -33.13776397705078 -43.67900466918945 C -33.13776397705078 -43.47465133666992 -33.035587310791016 -43.28489685058594 -32.875022888183594 -43.182716369628906 C -32.787445068359375 -43.124332427978516 -32.74365234375 -43.02215576171875 -32.74365234375 -42.919979095458984 L -32.74365234375 -40.96401596069336 C -32.74365234375 -40.818050384521484 -32.831233978271484 -40.67208480834961 -32.96260452270508 -40.599098205566406 C -33.210750579833984 -40.46772766113281 -34.553646087646484 -39.79627990722656 -35.77976989746094 -38.78910827636719 C -35.94033432006836 -38.657737731933594 -36.027915954589844 -38.467979431152344 -36.027915954589844 -38.278221130371094 L -36.027915954589844 -36.89153289794922 C -36.027915954589844 -36.716373443603516 -36.17388153076172 -36.58500289916992 -36.33444595336914 -36.58500289916992 C -36.49501037597656 -36.58500289916992 -36.64097595214844 -36.73097229003906 -36.64097595214844 -36.89153289794922 L -36.64097595214844 -38.278221130371094 C -36.64097595214844 -38.672332763671875 -36.465816497802734 -39.02265548706055 -36.17388153076172 -39.27079772949219 C -35.03533935546875 -40.20499038696289 -33.79461669921875 -40.87643814086914 -33.35671615600586 -41.09539031982422 L -33.35671615600586 -42.774009704589844 C -33.6048583984375 -43.0075569152832 -33.75082778930664 -43.32868576049805 -33.75082778930664 -43.67900466918945 L -33.75082778930664 -45.707950592041016 C -33.75082778930664 -46.87568664550781 -32.787445068359375 -47.83906936645508 -31.619707107543945 -47.83906936645508 L -31.181806564331055 -47.83906936645508 C -29.99947166442871 -47.83906936645508 -29.05068588256836 -46.87568664550781 -29.05068588256836 -45.707950592041016 L -29.05068588256836 -43.67900466918945 C -29.05068588256836 -43.32868576049805 -29.196653366088867 -42.99296188354492 -29.459392547607422 -42.774009704589844 L -29.459392547607422 -40.978614807128906 C -29.459392547607422 -40.8034553527832 -29.60536003112793 -40.67208480834961 -29.76592445373535 -40.67208480834961 C -29.941085815429688 -40.67208480834961 -30.07245635986328 -40.818050384521484 -30.07245635986328 -40.978614807128906 L -30.07245635986328 -42.919979095458984 C -30.07245635986328 -43.02215576171875 -30.014068603515625 -43.124332427978516 -29.941085815429688 -43.182716369628906 C -29.76592445373535 -43.29949188232422 -29.663747787475586 -43.47465133666992 -29.663747787475586 -43.67900466918945 Z  M -31.21099853515625 -34.322513580322266 C -31.269386291503906 -34.26412582397461 -31.342369079589844 -34.24953079223633 -31.415353775024414 -34.24953079223633 C -31.48833656311035 -34.24953079223633 -31.561321258544922 -34.278724670410156 -31.619707107543945 -34.322513580322266 L -32.261962890625 -34.9063835144043 C -32.33494567871094 -34.96476745605469 -32.364139556884766 -35.05234909057617 -32.364139556884766 -35.15452575683594 L -32.159786224365234 -39.82547378540039 C -32.29115676879883 -39.98603820800781 -32.364139556884766 -40.20499038696289 -32.364139556884766 -40.4239387512207 C -32.364139556884766 -40.599098205566406 -32.21817398071289 -40.73046875 -32.05760955810547 -40.73046875 C -31.882448196411133 -40.73046875 -31.75107765197754 -40.584503173828125 -31.75107765197754 -40.4239387512207 C -31.75107765197754 -40.21958541870117 -31.590513229370117 -40.05902099609375 -31.386159896850586 -40.05902099609375 C -31.313175201416016 -40.05902099609375 -31.240192413330078 -40.08821487426758 -31.181806564331055 -40.117408752441406 C -31.16720962524414 -40.13200378417969 -31.152612686157227 -40.146602630615234 -31.138015747070312 -40.146602630615234 C -31.065031051635742 -40.21958541870117 -31.021242141723633 -40.307167053222656 -31.021242141723633 -40.40934371948242 C -31.021242141723633 -40.584503173828125 -30.875274658203125 -40.71587371826172 -30.714710235595703 -40.71587371826172 C -30.53955078125 -40.71587371826172 -30.408180236816406 -40.569908142089844 -30.408180236816406 -40.40934371948242 C -30.408180236816406 -40.161197662353516 -30.495759963989258 -39.927650451660156 -30.65632438659668 -39.767086029052734 L -30.45197105407715 -35.15452575683594 C -30.45197105407715 -35.06694412231445 -30.481163024902344 -34.979366302490234 -30.554147720336914 -34.9063835144043 L -31.21099853515625 -34.322513580322266 Z  M -31.079627990722656 -35.27130126953125 L -31.269386291503906 -39.445960998535156 C -31.313175201416016 -39.445960998535156 -31.356966018676758 -39.43136215209961 -31.4007568359375 -39.43136215209961 C -31.459142684936523 -39.43136215209961 -31.51753044128418 -39.43136215209961 -31.561321258544922 -39.445960998535156 L -31.736480712890625 -35.2567024230957 L -31.415353775024414 -34.96476745605469 L -31.079627990722656 -35.27130126953125 Z  M -23.88344955444336 -39.0810432434082 L -25.781023025512695 -39.0810432434082 C -25.9561824798584 -39.0810432434082 -26.087553024291992 -39.22700881958008 -26.087553024291992 -39.3875732421875 L -26.087553024291992 -41.2851448059082 C -26.087553024291992 -41.46030807495117 -25.941585540771484 -41.5916748046875 -25.781023025512695 -41.5916748046875 C -25.153364181518555 -41.5916748046875 -24.540302276611328 -41.31433868408203 -24.11699676513672 -40.84724426269531 C -23.76667594909668 -40.43853759765625 -23.562320709228516 -39.927650451660156 -23.562320709228516 -39.3875732421875 C -23.576919555664062 -39.22700881958008 -23.708288192749023 -39.0810432434082 -23.88344955444336 -39.0810432434082 Z  M -24.219173431396484 -39.708702087402344 C -24.27756118774414 -39.98603820800781 -24.39433479309082 -40.23418045043945 -24.584091186523438 -40.45313262939453 C -24.81764030456543 -40.71587371826172 -25.124170303344727 -40.89103317260742 -25.474491119384766 -40.96401596069336 L -25.474491119384766 -39.708702087402344 L -24.219173431396484 -39.708702087402344 Z  M -26.86117935180664 -35.621620178222656 C -28.364639282226562 -35.621620178222656 -29.59076499938965 -36.84774398803711 -29.59076499938965 -38.3512077331543 C -29.59076499938965 -39.85466766357422 -28.364639282226562 -41.08079147338867 -26.86117935180664 -41.08079147338867 C -26.686017990112305 -41.08079147338867 -26.55464744567871 -40.9348258972168 -26.55464744567871 -40.774261474609375 L -26.55464744567871 -38.657737731933594 L -24.43812370300293 -38.657737731933594 C -24.262964248657227 -38.657737731933594 -24.131593704223633 -38.51176834106445 -24.131593704223633 -38.3512077331543 C -24.131593704223633 -36.84774398803711 -25.357717514038086 -35.621620178222656 -26.86117935180664 -35.621620178222656 Z  M -24.773849487304688 -38.044673919677734 L -26.86117935180664 -38.044673919677734 C -27.036338806152344 -38.044673919677734 -27.167709350585938 -38.190643310546875 -27.167709350585938 -38.3512077331543 L -27.167709350585938 -40.43853759765625 C -28.18947982788086 -40.29256820678711 -28.97770118713379 -39.40216827392578 -28.97770118713379 -38.3512077331543 C -28.97770118713379 -37.183467864990234 -28.028915405273438 -36.234683990478516 -26.86117935180664 -36.234683990478516 C -25.795618057250977 -36.234683990478516 -24.919816970825195 -37.02290725708008 -24.773849487304688 -38.044673919677734 Z "/>
  <text x="-37.40000534057617" y="-31.54913902282715" style="white-space: pre; fill: rgb(0, 0, 0); font-size: 5px; font-weight: bold; font-family: 'Helvetica Neue', Helvetica, Arial-Unicode, Arial, sans-serif;"><tspan style="font-size: 0.7px; word-spacing: 0px;">Created by Gregor Črešnar</tspan></text>
  <text x="-37.40000534057617" y="-30.81930160522461" style="white-space: pre; fill: rgb(0, 0, 0); font-size: 5px; font-weight: bold; font-family: 'Helvetica Neue', Helvetica, Arial-Unicode, Arial, sans-serif;"><tspan style="font-size: 0.7px; word-spacing: 0px;">from the Noun Project</tspan></text>
</svg>