<?xml version="1.0" encoding="utf-8"?>
<svg x="0px" y="0px" viewBox="0 0 20 20" xmlns="http://www.w3.org/2000/svg">
  <defs/>
  <path d="M 17.802555084228516 2.9963393211364746 C 16.587541580200195 2.9963393211364746 15.5934419631958 3.975557565689087 15.5934419631958 5.172381401062012 C 15.5934419631958 5.634791374206543 15.759125709533691 6.069998264312744 16.00765037536621 6.450806617736816 L 13.218648910522461 9.74206829071045 C 12.942508697509766 9.606064796447754 12.611141204833984 9.524462699890137 12.279775619506836 9.524462699890137 C 11.478970527648926 9.524462699890137 10.788622856140137 9.959671974182129 10.402029037475586 10.585284233093262 L 8.966106414794922 10.150075912475586 C 8.966106414794922 10.12287425994873 8.966106414794922 10.095673561096191 8.966106414794922 10.068474769592285 C 8.966106414794922 8.871650695800781 7.972006320953369 7.892432689666748 6.756993770599365 7.892432689666748 C 5.541983604431152 7.892432689666748 4.547883033752441 8.871650695800781 4.547883033752441 10.068474769592285 C 4.547883033752441 10.503681182861328 4.685952186584473 10.938892364501953 4.934476852416992 11.292497634887695 L 3.360485315322876 13.060531616210938 C 3.029118537902832 12.87012767791748 2.6977498531341553 12.788527488708496 2.338770866394043 12.788527488708496 C 1.1237592697143555 12.788527488708496 0.12965819239616394 13.767745971679688 0.12965819239616394 14.964566230773926 C 0.12965819239616394 16.16139030456543 1.1237592697143555 17.140607833862305 2.338770866394043 17.140607833862305 C 3.553781032562256 17.140607833862305 4.547883033752441 16.16139030456543 4.547883033752441 14.964566230773926 C 4.547883033752441 14.529358863830566 4.409812927246094 14.094152450561523 4.161287307739258 13.740545272827148 L 5.735279083251953 11.972508430480957 C 6.03903341293335 12.135711669921875 6.3703999519348145 12.217315673828125 6.729381084442139 12.217315673828125 C 7.5301833152771 12.217315673828125 8.220531463623047 11.782108306884766 8.607124328613281 11.156495094299316 L 10.043048858642578 11.591704368591309 C 10.043048858642578 11.618905067443848 10.043048858642578 11.646102905273438 10.043048858642578 11.673303604125977 C 10.043048858642578 12.87012767791748 11.037148475646973 13.849346160888672 12.252161026000977 13.849346160888672 C 13.467171669006348 13.849346160888672 14.461274147033691 12.87012767791748 14.461274147033691 11.673303604125977 C 14.461274147033691 11.210895538330078 14.2955904006958 10.775687217712402 14.047064781188965 10.394880294799805 L 16.836069107055664 7.103616714477539 C 17.112207412719727 7.239620685577393 17.443572998046875 7.321222305297852 17.774940490722656 7.321222305297852 C 18.989952087402344 7.321222305297852 19.984052658081055 6.34200382232666 19.984052658081055 5.1451802253723145 C 19.984052658081055 3.9483582973480225 19.01756477355957 2.9963393211364746 17.802555084228516 2.9963393211364746 Z  M 2.338770866394043 16.052589416503906 C 1.731264591217041 16.052589416503906 1.2342145442962646 15.562979698181152 1.2342145442962646 14.964566230773926 C 1.2342145442962646 14.366155624389648 1.731264591217041 13.876546859741211 2.338770866394043 13.876546859741211 C 2.946277141571045 13.876546859741211 3.4433271884918213 14.366155624389648 3.4433271884918213 14.964566230773926 C 3.4433271884918213 15.562979698181152 2.946277141571045 16.052589416503906 2.338770866394043 16.052589416503906 Z  M 6.756993770599365 11.156495094299316 C 6.149487018585205 11.156495094299316 5.652437686920166 10.666886329650879 5.652437686920166 10.068474769592285 C 5.652437686920166 9.470062255859375 6.149487018585205 8.980453491210938 6.756993770599365 8.980453491210938 C 7.364500045776367 8.980453491210938 7.8615498542785645 9.470062255859375 7.8615498542785645 10.068474769592285 C 7.8615498542785645 10.666886329650879 7.364500045776367 11.156495094299316 6.756993770599365 11.156495094299316 Z  M 12.279775619506836 12.788527488708496 C 11.67226791381836 12.788527488708496 11.175219535827637 12.298918724060059 11.175219535827637 11.700505256652832 C 11.175219535827637 11.102092742919922 11.67226791381836 10.612483978271484 12.279775619506836 10.612483978271484 C 12.88728141784668 10.612483978271484 13.384331703186035 11.102092742919922 13.384331703186035 11.700505256652832 C 13.384331703186035 12.298918724060059 12.88728141784668 12.788527488708496 12.279775619506836 12.788527488708496 Z  M 17.802555084228516 6.260402202606201 C 17.195049285888672 6.260402202606201 16.697998046875 5.7707929611206055 16.697998046875 5.172381401062012 C 16.697998046875 4.57396936416626 17.195049285888672 4.084360122680664 17.802555084228516 4.084360122680664 C 18.410058975219727 4.084360122680664 18.907108306884766 4.57396936416626 18.907108306884766 5.172381401062012 C 18.907108306884766 5.7707929611206055 18.410058975219727 6.260402202606201 17.802555084228516 6.260402202606201 Z "/>
</svg>