<?xml version="1.0" encoding="utf-8"?>
<svg x="0px" y="0px" viewBox="0 0 72.2 46.59" xmlns="http://www.w3.org/2000/svg">
  <defs/>
  <path d="M84.343,34.953c0,2-1.622,3.622-3.622,3.622H34.847c-2,0-3.622-1.621-3.622-3.622l0,0c0-2,1.622-3.622,3.622-3.622h45.874  C82.721,31.331,84.343,32.953,84.343,34.953L84.343,34.953z" transform="matrix(1, 0, 0, 1, -13.422065247429742, -28.0767691400316)" style="fill: rgb(35, 90, 122);"/>
  <ellipse cx="20.36" cy="34.953" rx="6.036" ry="6.036" transform="matrix(1, 0, 0, 1, -13.422065247429742, -28.0767691400316)" style="fill: rgb(35, 90, 122);"/>
  <path d="M84.343,51.25c0,2-1.622,3.621-3.622,3.621H34.847c-2,0-3.622-1.621-3.622-3.621l0,0c0-2,1.622-3.622,3.622-3.622h45.874  C82.721,47.628,84.343,49.25,84.343,51.25L84.343,51.25z" transform="matrix(1, 0, 0, 1, -13.422065247429742, -28.0767691400316)" style="fill: rgb(35, 90, 122);"/>
  <ellipse cx="20.36" cy="51.25" rx="6.036" ry="6.036" transform="matrix(1, 0, 0, 1, -13.422065247429742, -28.0767691400316)" style="fill: rgb(35, 90, 122);"/>
  <path d="M84.343,67.547c0,2-1.622,3.621-3.622,3.621H34.847c-2,0-3.622-1.621-3.622-3.621l0,0c0-2,1.622-3.621,3.622-3.621h45.874  C82.721,63.926,84.343,65.547,84.343,67.547L84.343,67.547z" transform="matrix(1, 0, 0, 1, -13.422065247429742, -28.0767691400316)" style="fill: rgb(35, 90, 122);"/>
  <ellipse cx="20.36" cy="67.547" rx="6.036" ry="6.036" transform="matrix(1, 0, 0, 1, -13.422065247429742, -28.0767691400316)" style="fill: rgb(35, 90, 122);"/>
</svg>